<svg width="394" height="136" viewBox="0 0 394 136" fill="none" xmlns="http://www.w3.org/2000/svg">
<g filter="url(#filter0_d_135_251)">
<rect x="18" y="10" width="358" height="100" rx="25" fill="white"/>
<path d="M132.248 27.32C134.024 27.32 135.576 27.664 136.904 28.352C138.248 29.024 139.28 30 140 31.28C140.736 32.544 141.104 34.024 141.104 35.72C141.104 37.416 140.736 38.888 140 40.136C139.28 41.384 138.248 42.344 136.904 43.016C135.576 43.672 134.024 44 132.248 44H126.8V27.32H132.248ZM132.248 41.768C134.2 41.768 135.696 41.24 136.736 40.184C137.776 39.128 138.296 37.64 138.296 35.72C138.296 33.784 137.776 32.272 136.736 31.184C135.696 30.096 134.2 29.552 132.248 29.552H129.536V41.768H132.248ZM149.552 44.216C148.304 44.216 147.176 43.936 146.168 43.376C145.16 42.8 144.368 42 143.792 40.976C143.216 39.936 142.928 38.736 142.928 37.376C142.928 36.032 143.224 34.84 143.816 33.8C144.408 32.76 145.216 31.96 146.24 31.4C147.264 30.84 148.408 30.56 149.672 30.56C150.936 30.56 152.08 30.84 153.104 31.4C154.128 31.96 154.936 32.76 155.528 33.8C156.12 34.84 156.416 36.032 156.416 37.376C156.416 38.72 156.112 39.912 155.504 40.952C154.896 41.992 154.064 42.8 153.008 43.376C151.968 43.936 150.816 44.216 149.552 44.216ZM149.552 41.84C150.256 41.84 150.912 41.672 151.52 41.336C152.144 41 152.648 40.496 153.032 39.824C153.416 39.152 153.608 38.336 153.608 37.376C153.608 36.416 153.424 35.608 153.056 34.952C152.688 34.28 152.2 33.776 151.592 33.44C150.984 33.104 150.328 32.936 149.624 32.936C148.92 32.936 148.264 33.104 147.656 33.44C147.064 33.776 146.592 34.28 146.24 34.952C145.888 35.608 145.712 36.416 145.712 37.376C145.712 38.8 146.072 39.904 146.792 40.688C147.528 41.456 148.448 41.84 149.552 41.84ZM176.88 30.776L172.776 44H169.896L167.232 34.232L164.568 44H161.688L157.56 30.776H160.344L163.104 41.408L165.912 30.776H168.768L171.456 41.36L174.192 30.776H176.88ZM185.597 30.56C186.637 30.56 187.565 30.776 188.381 31.208C189.213 31.64 189.861 32.28 190.325 33.128C190.789 33.976 191.021 35 191.021 36.2V44H188.309V36.608C188.309 35.424 188.013 34.52 187.421 33.896C186.829 33.256 186.021 32.936 184.997 32.936C183.973 32.936 183.157 33.256 182.549 33.896C181.957 34.52 181.661 35.424 181.661 36.608V44H178.925V30.776H181.661V32.288C182.109 31.744 182.677 31.32 183.365 31.016C184.069 30.712 184.813 30.56 185.597 30.56ZM197.247 26.24V44H194.511V26.24H197.247ZM206.575 44.216C205.327 44.216 204.199 43.936 203.191 43.376C202.183 42.8 201.391 42 200.815 40.976C200.239 39.936 199.951 38.736 199.951 37.376C199.951 36.032 200.247 34.84 200.839 33.8C201.431 32.76 202.239 31.96 203.263 31.4C204.287 30.84 205.431 30.56 206.695 30.56C207.959 30.56 209.103 30.84 210.127 31.4C211.151 31.96 211.959 32.76 212.551 33.8C213.143 34.84 213.439 36.032 213.439 37.376C213.439 38.72 213.135 39.912 212.527 40.952C211.919 41.992 211.087 42.8 210.031 43.376C208.991 43.936 207.839 44.216 206.575 44.216ZM206.575 41.84C207.279 41.84 207.935 41.672 208.543 41.336C209.167 41 209.671 40.496 210.055 39.824C210.439 39.152 210.631 38.336 210.631 37.376C210.631 36.416 210.447 35.608 210.079 34.952C209.711 34.28 209.223 33.776 208.615 33.44C208.007 33.104 207.351 32.936 206.647 32.936C205.943 32.936 205.287 33.104 204.679 33.44C204.087 33.776 203.615 34.28 203.263 34.952C202.911 35.608 202.735 36.416 202.735 37.376C202.735 38.8 203.095 39.904 203.815 40.688C204.551 41.456 205.471 41.84 206.575 41.84ZM215.232 37.328C215.232 36 215.504 34.824 216.048 33.8C216.608 32.776 217.36 31.984 218.304 31.424C219.264 30.848 220.32 30.56 221.472 30.56C222.512 30.56 223.416 30.768 224.184 31.184C224.968 31.584 225.592 32.088 226.056 32.696V30.776H228.816V44H226.056V42.032C225.592 42.656 224.96 43.176 224.16 43.592C223.36 44.008 222.448 44.216 221.424 44.216C220.288 44.216 219.248 43.928 218.304 43.352C217.36 42.76 216.608 41.944 216.048 40.904C215.504 39.848 215.232 38.656 215.232 37.328ZM226.056 37.376C226.056 36.464 225.864 35.672 225.48 35C225.112 34.328 224.624 33.816 224.016 33.464C223.408 33.112 222.752 32.936 222.048 32.936C221.344 32.936 220.688 33.112 220.08 33.464C219.472 33.8 218.976 34.304 218.592 34.976C218.224 35.632 218.04 36.416 218.04 37.328C218.04 38.24 218.224 39.04 218.592 39.728C218.976 40.416 219.472 40.944 220.08 41.312C220.704 41.664 221.36 41.84 222.048 41.84C222.752 41.84 223.408 41.664 224.016 41.312C224.624 40.96 225.112 40.448 225.48 39.776C225.864 39.088 226.056 38.288 226.056 37.376ZM231.497 37.328C231.497 36 231.769 34.824 232.313 33.8C232.873 32.776 233.625 31.984 234.569 31.424C235.529 30.848 236.593 30.56 237.761 30.56C238.625 30.56 239.473 30.752 240.305 31.136C241.153 31.504 241.825 32 242.321 32.624V26.24H245.081V44H242.321V42.008C241.873 42.648 241.249 43.176 240.449 43.592C239.665 44.008 238.761 44.216 237.737 44.216C236.585 44.216 235.529 43.928 234.569 43.352C233.625 42.76 232.873 41.944 232.313 40.904C231.769 39.848 231.497 38.656 231.497 37.328ZM242.321 37.376C242.321 36.464 242.129 35.672 241.745 35C241.377 34.328 240.889 33.816 240.281 33.464C239.673 33.112 239.017 32.936 238.313 32.936C237.609 32.936 236.953 33.112 236.345 33.464C235.737 33.8 235.241 34.304 234.857 34.976C234.489 35.632 234.305 36.416 234.305 37.328C234.305 38.24 234.489 39.04 234.857 39.728C235.241 40.416 235.737 40.944 236.345 41.312C236.969 41.664 237.625 41.84 238.313 41.84C239.017 41.84 239.673 41.664 240.281 41.312C240.889 40.96 241.377 40.448 241.745 39.776C242.129 39.088 242.321 38.288 242.321 37.376ZM262.517 44.168C260.965 44.168 259.533 43.808 258.221 43.088C256.925 42.352 255.893 41.336 255.125 40.04C254.373 38.728 253.997 37.256 253.997 35.624C253.997 33.992 254.373 32.528 255.125 31.232C255.893 29.936 256.925 28.928 258.221 28.208C259.533 27.472 260.965 27.104 262.517 27.104C264.085 27.104 265.517 27.472 266.813 28.208C268.125 28.928 269.157 29.936 269.909 31.232C270.661 32.528 271.037 33.992 271.037 35.624C271.037 37.256 270.661 38.728 269.909 40.04C269.157 41.336 268.125 42.352 266.813 43.088C265.517 43.808 264.085 44.168 262.517 44.168ZM262.517 41.792C263.621 41.792 264.605 41.544 265.469 41.048C266.333 40.536 267.005 39.816 267.485 38.888C267.981 37.944 268.229 36.856 268.229 35.624C268.229 34.392 267.981 33.312 267.485 32.384C267.005 31.456 266.333 30.744 265.469 30.248C264.605 29.752 263.621 29.504 262.517 29.504C261.413 29.504 260.429 29.752 259.565 30.248C258.701 30.744 258.021 31.456 257.525 32.384C257.045 33.312 256.805 34.392 256.805 35.624C256.805 36.856 257.045 37.944 257.525 38.888C258.021 39.816 258.701 40.536 259.565 41.048C260.429 41.544 261.413 41.792 262.517 41.792ZM280.402 30.56C281.442 30.56 282.37 30.776 283.186 31.208C284.018 31.64 284.666 32.28 285.13 33.128C285.594 33.976 285.826 35 285.826 36.2V44H283.114V36.608C283.114 35.424 282.818 34.52 282.226 33.896C281.634 33.256 280.826 32.936 279.802 32.936C278.778 32.936 277.962 33.256 277.354 33.896C276.762 34.52 276.466 35.424 276.466 36.608V44H273.73V30.776H276.466V32.288C276.914 31.744 277.482 31.32 278.17 31.016C278.874 30.712 279.618 30.56 280.402 30.56ZM306.326 27.32V29.552H301.886V44H299.15V29.552H294.686V27.32H306.326ZM315.937 30.56C316.945 30.56 317.841 30.776 318.625 31.208C319.425 31.64 320.049 32.28 320.497 33.128C320.961 33.976 321.193 35 321.193 36.2V44H318.481V36.608C318.481 35.424 318.185 34.52 317.593 33.896C317.001 33.256 316.193 32.936 315.169 32.936C314.145 32.936 313.329 33.256 312.721 33.896C312.129 34.52 311.833 35.424 311.833 36.608V44H309.097V26.24H311.833V32.312C312.297 31.752 312.881 31.32 313.585 31.016C314.305 30.712 315.089 30.56 315.937 30.56ZM336.803 37.064C336.803 37.56 336.771 38.008 336.707 38.408H326.603C326.683 39.464 327.075 40.312 327.779 40.952C328.483 41.592 329.347 41.912 330.371 41.912C331.843 41.912 332.883 41.296 333.491 40.064H336.443C336.043 41.28 335.315 42.28 334.259 43.064C333.219 43.832 331.923 44.216 330.371 44.216C329.107 44.216 327.971 43.936 326.963 43.376C325.971 42.8 325.187 42 324.611 40.976C324.051 39.936 323.771 38.736 323.771 37.376C323.771 36.016 324.043 34.824 324.587 33.8C325.147 32.76 325.923 31.96 326.915 31.4C327.923 30.84 329.075 30.56 330.371 30.56C331.619 30.56 332.731 30.832 333.707 31.376C334.683 31.92 335.443 32.688 335.987 33.68C336.531 34.656 336.803 35.784 336.803 37.064ZM333.947 36.2C333.931 35.192 333.571 34.384 332.867 33.776C332.163 33.168 331.291 32.864 330.251 32.864C329.307 32.864 328.499 33.168 327.827 33.776C327.155 34.368 326.755 35.176 326.627 36.2H333.947Z" fill="#485782"/>
<path d="M142.892 84.212H132.884L131.228 89H125.936L134.972 63.836H140.84L149.876 89H144.548L142.892 84.212ZM141.524 80.18L137.888 69.668L134.252 80.18H141.524ZM158.384 71.936C159.032 71.024 159.92 70.268 161.048 69.668C162.2 69.044 163.508 68.732 164.972 68.732C166.676 68.732 168.212 69.152 169.58 69.992C170.972 70.832 172.064 72.032 172.856 73.592C173.672 75.128 174.08 76.916 174.08 78.956C174.08 80.996 173.672 82.808 172.856 84.392C172.064 85.952 170.972 87.164 169.58 88.028C168.212 88.892 166.676 89.324 164.972 89.324C163.508 89.324 162.212 89.024 161.084 88.424C159.98 87.824 159.08 87.068 158.384 86.156V98.504H153.344V69.056H158.384V71.936ZM168.932 78.956C168.932 77.756 168.68 76.724 168.176 75.86C167.696 74.972 167.048 74.3 166.232 73.844C165.44 73.388 164.576 73.16 163.64 73.16C162.728 73.16 161.864 73.4 161.048 73.88C160.256 74.336 159.608 75.008 159.104 75.896C158.624 76.784 158.384 77.828 158.384 79.028C158.384 80.228 158.624 81.272 159.104 82.16C159.608 83.048 160.256 83.732 161.048 84.212C161.864 84.668 162.728 84.896 163.64 84.896C164.576 84.896 165.44 84.656 166.232 84.176C167.048 83.696 167.696 83.012 168.176 82.124C168.68 81.236 168.932 80.18 168.932 78.956ZM182.872 71.936C183.52 71.024 184.408 70.268 185.536 69.668C186.688 69.044 187.996 68.732 189.46 68.732C191.164 68.732 192.7 69.152 194.068 69.992C195.46 70.832 196.552 72.032 197.344 73.592C198.16 75.128 198.568 76.916 198.568 78.956C198.568 80.996 198.16 82.808 197.344 84.392C196.552 85.952 195.46 87.164 194.068 88.028C192.7 88.892 191.164 89.324 189.46 89.324C187.996 89.324 186.7 89.024 185.572 88.424C184.468 87.824 183.568 87.068 182.872 86.156V98.504H177.832V69.056H182.872V71.936ZM193.42 78.956C193.42 77.756 193.168 76.724 192.664 75.86C192.184 74.972 191.536 74.3 190.72 73.844C189.928 73.388 189.064 73.16 188.128 73.16C187.216 73.16 186.352 73.4 185.536 73.88C184.744 74.336 184.096 75.008 183.592 75.896C183.112 76.784 182.872 77.828 182.872 79.028C182.872 80.228 183.112 81.272 183.592 82.16C184.096 83.048 184.744 83.732 185.536 84.212C186.352 84.668 187.216 84.896 188.128 84.896C189.064 84.896 189.928 84.656 190.72 84.176C191.536 83.696 192.184 83.012 192.664 82.124C193.168 81.236 193.42 80.18 193.42 78.956ZM219.665 89.252C217.913 89.252 216.329 88.952 214.913 88.352C213.521 87.752 212.417 86.888 211.601 85.76C210.785 84.632 210.365 83.3 210.341 81.764H215.741C215.813 82.796 216.173 83.612 216.821 84.212C217.493 84.812 218.405 85.112 219.557 85.112C220.733 85.112 221.657 84.836 222.329 84.284C223.001 83.708 223.337 82.964 223.337 82.052C223.337 81.308 223.109 80.696 222.653 80.216C222.197 79.736 221.621 79.364 220.925 79.1C220.253 78.812 219.317 78.5 218.117 78.164C216.485 77.684 215.153 77.216 214.121 76.76C213.113 76.28 212.237 75.572 211.493 74.636C210.773 73.676 210.413 72.404 210.413 70.82C210.413 69.332 210.785 68.036 211.529 66.932C212.273 65.828 213.317 64.988 214.661 64.412C216.005 63.812 217.541 63.512 219.269 63.512C221.861 63.512 223.961 64.148 225.569 65.42C227.201 66.668 228.101 68.42 228.269 70.676H222.725C222.677 69.812 222.305 69.104 221.609 68.552C220.937 67.976 220.037 67.688 218.909 67.688C217.925 67.688 217.133 67.94 216.533 68.444C215.957 68.948 215.669 69.68 215.669 70.64C215.669 71.312 215.885 71.876 216.317 72.332C216.773 72.764 217.325 73.124 217.973 73.412C218.645 73.676 219.581 73.988 220.781 74.348C222.413 74.828 223.745 75.308 224.777 75.788C225.809 76.268 226.697 76.988 227.441 77.948C228.185 78.908 228.557 80.168 228.557 81.728C228.557 83.072 228.209 84.32 227.513 85.472C226.817 86.624 225.797 87.548 224.453 88.244C223.109 88.916 221.513 89.252 219.665 89.252ZM238.884 73.196V82.844C238.884 83.516 239.04 84.008 239.352 84.32C239.688 84.608 240.24 84.752 241.008 84.752H243.348V89H240.18C235.932 89 233.808 86.936 233.808 82.808V73.196H231.432V69.056H233.808V64.124H238.884V69.056H243.348V73.196H238.884ZM255.919 89.324C253.999 89.324 252.271 88.904 250.735 88.064C249.199 87.2 247.987 85.988 247.099 84.428C246.235 82.868 245.803 81.068 245.803 79.028C245.803 76.988 246.247 75.188 247.135 73.628C248.047 72.068 249.283 70.868 250.843 70.028C252.403 69.164 254.143 68.732 256.063 68.732C257.983 68.732 259.723 69.164 261.283 70.028C262.843 70.868 264.067 72.068 264.955 73.628C265.867 75.188 266.323 76.988 266.323 79.028C266.323 81.068 265.855 82.868 264.919 84.428C264.007 85.988 262.759 87.2 261.175 88.064C259.615 88.904 257.863 89.324 255.919 89.324ZM255.919 84.932C256.831 84.932 257.683 84.716 258.475 84.284C259.291 83.828 259.939 83.156 260.419 82.268C260.899 81.38 261.139 80.3 261.139 79.028C261.139 77.132 260.635 75.68 259.627 74.672C258.643 73.64 257.431 73.124 255.991 73.124C254.551 73.124 253.339 73.64 252.355 74.672C251.395 75.68 250.915 77.132 250.915 79.028C250.915 80.924 251.383 82.388 252.319 83.42C253.279 84.428 254.479 84.932 255.919 84.932ZM275.15 72.152C275.798 71.096 276.638 70.268 277.67 69.668C278.726 69.068 279.926 68.768 281.27 68.768V74.06H279.938C278.354 74.06 277.154 74.432 276.338 75.176C275.546 75.92 275.15 77.216 275.15 79.064V89H270.11V69.056H275.15V72.152ZM303.295 78.596C303.295 79.316 303.247 79.964 303.151 80.54H288.571C288.691 81.98 289.195 83.108 290.083 83.924C290.971 84.74 292.063 85.148 293.359 85.148C295.231 85.148 296.563 84.344 297.355 82.736H302.791C302.215 84.656 301.111 86.24 299.479 87.488C297.847 88.712 295.843 89.324 293.467 89.324C291.547 89.324 289.819 88.904 288.283 88.064C286.771 87.2 285.583 85.988 284.719 84.428C283.879 82.868 283.459 81.068 283.459 79.028C283.459 76.964 283.879 75.152 284.719 73.592C285.559 72.032 286.735 70.832 288.247 69.992C289.759 69.152 291.499 68.732 293.467 68.732C295.363 68.732 297.055 69.14 298.543 69.956C300.055 70.772 301.219 71.936 302.035 73.448C302.875 74.936 303.295 76.652 303.295 78.596ZM298.075 77.156C298.051 75.86 297.583 74.828 296.671 74.06C295.759 73.268 294.643 72.872 293.323 72.872C292.075 72.872 291.019 73.256 290.155 74.024C289.315 74.768 288.799 75.812 288.607 77.156H298.075Z" fill="#485782"/>
<path d="M84.125 45.8126C84.9126 44.9048 85.5131 43.8504 85.8921 42.7099C86.2711 41.5695 86.421 40.3653 86.3333 39.1667C83.9154 39.3619 81.6708 40.4992 80.0833 42.3334C79.3231 43.2125 78.747 44.2352 78.3892 45.341C78.0313 46.4468 77.899 47.6131 78 48.7709C79.1795 48.7807 80.3454 48.519 81.4075 48.006C82.4696 47.493 83.3994 46.7425 84.125 45.8126ZM89.375 61.3126C89.389 59.7162 89.8095 58.1497 90.5968 56.7609C91.3841 55.3721 92.5124 54.2069 93.875 53.3751C93.015 52.136 91.8782 51.1143 90.5547 50.3911C89.2311 49.6678 87.7573 49.2629 86.25 49.2084C83 48.8751 80 51.1042 78.2708 51.1042C76.5417 51.1042 74.1042 49.2501 71.3958 49.2917C69.6253 49.3501 67.9 49.8663 66.3884 50.7901C64.8768 51.7138 63.6304 53.0136 62.7708 54.5626C59.1042 60.9376 61.8333 70.4167 65.5 75.5626C67.1667 78.0834 69.25 80.9376 72 80.8334C74.75 80.7293 75.6458 79.1251 78.8333 79.1251C82.0208 79.1251 83 80.8334 85.7083 80.7709C88.4167 80.7084 90.3333 78.1876 92.0833 75.6668C93.323 73.8366 94.2914 71.8367 94.9583 69.7292C93.3072 69.0251 91.8986 67.8528 90.9063 66.357C89.9141 64.8612 89.3817 63.1075 89.375 61.3126Z" fill="black"/>
</g>
<defs>
<filter id="filter0_d_135_251" x="0" y="0" width="394" height="136" filterUnits="userSpaceOnUse" color-interpolation-filters="sRGB">
<feFlood flood-opacity="0" result="BackgroundImageFix"/>
<feColorMatrix in="SourceAlpha" type="matrix" values="0 0 0 0 0 0 0 0 0 0 0 0 0 0 0 0 0 0 127 0" result="hardAlpha"/>
<feMorphology radius="10" operator="dilate" in="SourceAlpha" result="effect1_dropShadow_135_251"/>
<feOffset dy="8"/>
<feGaussianBlur stdDeviation="4"/>
<feComposite in2="hardAlpha" operator="out"/>
<feColorMatrix type="matrix" values="0 0 0 0 0.816667 0 0 0 0 0.879 0 0 0 0 1 0 0 0 0.15 0"/>
<feBlend mode="normal" in2="BackgroundImageFix" result="effect1_dropShadow_135_251"/>
<feBlend mode="normal" in="SourceGraphic" in2="effect1_dropShadow_135_251" result="shape"/>
</filter>
</defs>
</svg>
