<svg width="40" height="40" viewBox="0 0 40 40" fill="none" xmlns="http://www.w3.org/2000/svg">
<circle cx="20" cy="20" r="20" fill="#003DC9"/>
<path d="M30.1618 8.98471C26.8661 11.837 24.0778 14.5523 21.5251 18.0949C20.3993 19.6574 19.1474 21.4964 18.329 23.2328C17.8618 24.1535 17.0196 25.5921 16.7325 26.9753C15.1622 25.5144 13.4755 23.8562 11.7497 22.5574C10.5196 21.632 6.97667 23.5187 8.41885 24.6038C11.0036 26.548 13.1532 28.9695 15.6673 31.0003C16.7189 31.8488 19.0493 30.0062 19.597 29.2331C21.3946 26.6863 21.6403 23.573 22.9505 20.7949C24.9509 16.546 28.4985 13.0558 32.0013 10.0249C34.322 7.86049 31.9251 7.46127 30.1653 8.98471" fill="white"/>
</svg>
