<svg width="394" height="136" viewBox="0 0 394 136" fill="none" xmlns="http://www.w3.org/2000/svg">
<g filter="url(#filter0_d_135_239)">
<rect x="18" y="10" width="358" height="100" rx="25" fill="white"/>
<g clip-path="url(#clip0_135_239)">
<path d="M52.7182 84.7992L98.9618 61.6797C100.346 60.9876 100.346 59.0122 98.9618 58.3201L52.7182 35.2007C51.4693 34.5763 50 35.4844 50 36.8804V83.1195C50 84.5156 51.4693 85.4236 52.7182 84.7992Z" fill="#F6B94C"/>
<path d="M50.6272 35.4795C50.2484 35.8159 50 36.3067 50 36.8804V83.1195C50 83.6931 50.2484 84.1839 50.6272 84.5203L75.1476 59.9999L50.6272 35.4795Z" fill="#52C1FF"/>
<path d="M84.205 50.9427L52.7182 35.2008C51.9824 34.833 51.1705 34.9974 50.6272 35.4797L75.1476 60.0001L84.205 50.9427Z" fill="#67C7A5"/>
<path d="M50.6272 84.5204C51.1705 85.0027 51.9824 85.1671 52.7182 84.7993L84.205 69.0573L75.1476 60L50.6272 84.5204Z" fill="#F56C61"/>
</g>
<path d="M138.872 32.12C138.44 31.288 137.84 30.664 137.072 30.248C136.304 29.816 135.416 29.6 134.408 29.6C133.304 29.6 132.32 29.848 131.456 30.344C130.592 30.84 129.912 31.544 129.416 32.456C128.936 33.368 128.696 34.424 128.696 35.624C128.696 36.824 128.936 37.888 129.416 38.816C129.912 39.728 130.592 40.432 131.456 40.928C132.32 41.424 133.304 41.672 134.408 41.672C135.896 41.672 137.104 41.256 138.032 40.424C138.96 39.592 139.528 38.464 139.736 37.04H133.472V34.856H142.664V36.992C142.488 38.288 142.024 39.48 141.272 40.568C140.536 41.656 139.568 42.528 138.368 43.184C137.184 43.824 135.864 44.144 134.408 44.144C132.84 44.144 131.408 43.784 130.112 43.064C128.816 42.328 127.784 41.312 127.016 40.016C126.264 38.72 125.888 37.256 125.888 35.624C125.888 33.992 126.264 32.528 127.016 31.232C127.784 29.936 128.816 28.928 130.112 28.208C131.424 27.472 132.856 27.104 134.408 27.104C136.184 27.104 137.76 27.544 139.136 28.424C140.528 29.288 141.536 30.52 142.16 32.12H138.872ZM148.099 29.528V34.424H153.859V36.656H148.099V41.768H154.579V44H145.363V27.296H154.579V29.528H148.099ZM168.724 27.32V29.552H164.284V44H161.548V29.552H157.084V27.32H168.724ZM180.466 27.32V44H177.73V27.32H180.466ZM194.834 27.32V29.552H190.394V44H187.658V29.552H183.194V27.32H194.834ZM211.447 44.168C209.895 44.168 208.463 43.808 207.151 43.088C205.855 42.352 204.823 41.336 204.055 40.04C203.303 38.728 202.927 37.256 202.927 35.624C202.927 33.992 203.303 32.528 204.055 31.232C204.823 29.936 205.855 28.928 207.151 28.208C208.463 27.472 209.895 27.104 211.447 27.104C213.015 27.104 214.447 27.472 215.743 28.208C217.055 28.928 218.087 29.936 218.839 31.232C219.591 32.528 219.967 33.992 219.967 35.624C219.967 37.256 219.591 38.728 218.839 40.04C218.087 41.336 217.055 42.352 215.743 43.088C214.447 43.808 213.015 44.168 211.447 44.168ZM211.447 41.792C212.551 41.792 213.535 41.544 214.399 41.048C215.263 40.536 215.935 39.816 216.415 38.888C216.911 37.944 217.159 36.856 217.159 35.624C217.159 34.392 216.911 33.312 216.415 32.384C215.935 31.456 215.263 30.744 214.399 30.248C213.535 29.752 212.551 29.504 211.447 29.504C210.343 29.504 209.359 29.752 208.495 30.248C207.631 30.744 206.951 31.456 206.455 32.384C205.975 33.312 205.735 34.392 205.735 35.624C205.735 36.856 205.975 37.944 206.455 38.888C206.951 39.816 207.631 40.536 208.495 41.048C209.359 41.544 210.343 41.792 211.447 41.792ZM236.363 44H233.627L225.395 31.544V44H222.659V27.296H225.395L233.627 39.728V27.296H236.363V44Z" fill="#485782"/>
<path d="M144.98 71.432C144.404 70.376 143.612 69.572 142.604 69.02C141.596 68.468 140.42 68.192 139.076 68.192C137.588 68.192 136.268 68.528 135.116 69.2C133.964 69.872 133.064 70.832 132.416 72.08C131.768 73.328 131.444 74.768 131.444 76.4C131.444 78.08 131.768 79.544 132.416 80.792C133.088 82.04 134.012 83 135.188 83.672C136.364 84.344 137.732 84.68 139.292 84.68C141.212 84.68 142.784 84.176 144.008 83.168C145.232 82.136 146.036 80.708 146.42 78.884H137.78V75.032H151.388V79.424C151.052 81.176 150.332 82.796 149.228 84.284C148.124 85.772 146.696 86.972 144.944 87.884C143.216 88.772 141.272 89.216 139.112 89.216C136.688 89.216 134.492 88.676 132.524 87.596C130.58 86.492 129.044 84.968 127.916 83.024C126.812 81.08 126.26 78.872 126.26 76.4C126.26 73.928 126.812 71.72 127.916 69.776C129.044 67.808 130.58 66.284 132.524 65.204C134.492 64.1 136.676 63.548 139.076 63.548C141.908 63.548 144.368 64.244 146.456 65.636C148.544 67.004 149.984 68.936 150.776 71.432H144.98ZM164.063 89.324C162.143 89.324 160.415 88.904 158.879 88.064C157.343 87.2 156.131 85.988 155.243 84.428C154.379 82.868 153.947 81.068 153.947 79.028C153.947 76.988 154.391 75.188 155.279 73.628C156.191 72.068 157.427 70.868 158.987 70.028C160.547 69.164 162.287 68.732 164.207 68.732C166.127 68.732 167.867 69.164 169.427 70.028C170.987 70.868 172.211 72.068 173.099 73.628C174.011 75.188 174.467 76.988 174.467 79.028C174.467 81.068 173.999 82.868 173.063 84.428C172.151 85.988 170.903 87.2 169.319 88.064C167.759 88.904 166.007 89.324 164.063 89.324ZM164.063 84.932C164.975 84.932 165.827 84.716 166.619 84.284C167.435 83.828 168.083 83.156 168.563 82.268C169.043 81.38 169.283 80.3 169.283 79.028C169.283 77.132 168.779 75.68 167.771 74.672C166.787 73.64 165.575 73.124 164.135 73.124C162.695 73.124 161.483 73.64 160.499 74.672C159.539 75.68 159.059 77.132 159.059 79.028C159.059 80.924 159.527 82.388 160.463 83.42C161.423 84.428 162.623 84.932 164.063 84.932ZM187.11 89.324C185.19 89.324 183.462 88.904 181.926 88.064C180.39 87.2 179.178 85.988 178.29 84.428C177.426 82.868 176.994 81.068 176.994 79.028C176.994 76.988 177.438 75.188 178.326 73.628C179.238 72.068 180.474 70.868 182.034 70.028C183.594 69.164 185.334 68.732 187.254 68.732C189.174 68.732 190.914 69.164 192.474 70.028C194.034 70.868 195.258 72.068 196.146 73.628C197.058 75.188 197.514 76.988 197.514 79.028C197.514 81.068 197.046 82.868 196.11 84.428C195.198 85.988 193.95 87.2 192.366 88.064C190.806 88.904 189.054 89.324 187.11 89.324ZM187.11 84.932C188.022 84.932 188.874 84.716 189.666 84.284C190.482 83.828 191.13 83.156 191.61 82.268C192.09 81.38 192.33 80.3 192.33 79.028C192.33 77.132 191.826 75.68 190.818 74.672C189.834 73.64 188.622 73.124 187.182 73.124C185.742 73.124 184.53 73.64 183.546 74.672C182.586 75.68 182.106 77.132 182.106 79.028C182.106 80.924 182.574 82.388 183.51 83.42C184.47 84.428 185.67 84.932 187.11 84.932ZM209.113 68.732C210.601 68.732 211.909 69.032 213.037 69.632C214.165 70.208 215.053 70.964 215.701 71.9V69.056H220.777V89.144C220.777 90.992 220.405 92.636 219.661 94.076C218.917 95.54 217.801 96.692 216.313 97.532C214.825 98.396 213.025 98.828 210.913 98.828C208.081 98.828 205.753 98.168 203.929 96.848C202.129 95.528 201.109 93.728 200.869 91.448H205.873C206.137 92.36 206.701 93.08 207.565 93.608C208.453 94.16 209.521 94.436 210.769 94.436C212.233 94.436 213.421 93.992 214.333 93.104C215.245 92.24 215.701 90.92 215.701 89.144V86.048C215.053 86.984 214.153 87.764 213.001 88.388C211.873 89.012 210.577 89.324 209.113 89.324C207.433 89.324 205.897 88.892 204.505 88.028C203.113 87.164 202.009 85.952 201.193 84.392C200.401 82.808 200.005 80.996 200.005 78.956C200.005 76.94 200.401 75.152 201.193 73.592C202.009 72.032 203.101 70.832 204.469 69.992C205.861 69.152 207.409 68.732 209.113 68.732ZM215.701 79.028C215.701 77.804 215.461 76.76 214.981 75.896C214.501 75.008 213.853 74.336 213.037 73.88C212.221 73.4 211.345 73.16 210.409 73.16C209.473 73.16 208.609 73.388 207.817 73.844C207.025 74.3 206.377 74.972 205.873 75.86C205.393 76.724 205.153 77.756 205.153 78.956C205.153 80.156 205.393 81.212 205.873 82.124C206.377 83.012 207.025 83.696 207.817 84.176C208.633 84.656 209.497 84.896 210.409 84.896C211.345 84.896 212.221 84.668 213.037 84.212C213.853 83.732 214.501 83.06 214.981 82.196C215.461 81.308 215.701 80.252 215.701 79.028ZM230.829 62.36V89H225.789V62.36H230.829ZM254.439 78.596C254.439 79.316 254.391 79.964 254.295 80.54H239.715C239.835 81.98 240.339 83.108 241.227 83.924C242.115 84.74 243.207 85.148 244.503 85.148C246.375 85.148 247.707 84.344 248.499 82.736H253.935C253.359 84.656 252.255 86.24 250.623 87.488C248.991 88.712 246.987 89.324 244.611 89.324C242.691 89.324 240.963 88.904 239.427 88.064C237.915 87.2 236.727 85.988 235.863 84.428C235.023 82.868 234.603 81.068 234.603 79.028C234.603 76.964 235.023 75.152 235.863 73.592C236.703 72.032 237.879 70.832 239.391 69.992C240.903 69.152 242.643 68.732 244.611 68.732C246.507 68.732 248.199 69.14 249.687 69.956C251.199 70.772 252.363 71.936 253.179 73.448C254.019 74.936 254.439 76.652 254.439 78.596ZM249.219 77.156C249.195 75.86 248.727 74.828 247.815 74.06C246.903 73.268 245.787 72.872 244.467 72.872C243.219 72.872 242.163 73.256 241.299 74.024C240.459 74.768 239.943 75.812 239.751 77.156H249.219ZM285.2 71.648C285.2 72.992 284.876 74.252 284.228 75.428C283.604 76.604 282.608 77.552 281.24 78.272C279.896 78.992 278.192 79.352 276.128 79.352H271.916V89H266.876V63.872H276.128C278.072 63.872 279.728 64.208 281.096 64.88C282.464 65.552 283.484 66.476 284.156 67.652C284.852 68.828 285.2 70.16 285.2 71.648ZM275.912 75.284C277.304 75.284 278.336 74.972 279.008 74.348C279.68 73.7 280.016 72.8 280.016 71.648C280.016 69.2 278.648 67.976 275.912 67.976H271.916V75.284H275.912ZM293.908 62.36V89H288.868V62.36H293.908ZM297.682 78.956C297.682 76.94 298.078 75.152 298.87 73.592C299.686 72.032 300.778 70.832 302.146 69.992C303.538 69.152 305.086 68.732 306.79 68.732C308.278 68.732 309.574 69.032 310.678 69.632C311.806 70.232 312.706 70.988 313.378 71.9V69.056H318.454V89H313.378V86.084C312.73 87.02 311.83 87.8 310.678 88.424C309.55 89.024 308.242 89.324 306.754 89.324C305.074 89.324 303.538 88.892 302.146 88.028C300.778 87.164 299.686 85.952 298.87 84.392C298.078 82.808 297.682 80.996 297.682 78.956ZM313.378 79.028C313.378 77.804 313.138 76.76 312.658 75.896C312.178 75.008 311.53 74.336 310.714 73.88C309.898 73.4 309.022 73.16 308.086 73.16C307.15 73.16 306.286 73.388 305.494 73.844C304.702 74.3 304.054 74.972 303.55 75.86C303.07 76.724 302.83 77.756 302.83 78.956C302.83 80.156 303.07 81.212 303.55 82.124C304.054 83.012 304.702 83.696 305.494 84.176C306.31 84.656 307.174 84.896 308.086 84.896C309.022 84.896 309.898 84.668 310.714 84.212C311.53 83.732 312.178 83.06 312.658 82.196C313.138 81.308 313.378 80.252 313.378 79.028ZM342.546 69.056L330.198 98.432H324.834L329.154 88.496L321.162 69.056H326.814L331.962 82.988L337.182 69.056H342.546Z" fill="#485782"/>
</g>
<defs>
<filter id="filter0_d_135_239" x="0" y="0" width="394" height="136" filterUnits="userSpaceOnUse" color-interpolation-filters="sRGB">
<feFlood flood-opacity="0" result="BackgroundImageFix"/>
<feColorMatrix in="SourceAlpha" type="matrix" values="0 0 0 0 0 0 0 0 0 0 0 0 0 0 0 0 0 0 127 0" result="hardAlpha"/>
<feMorphology radius="10" operator="dilate" in="SourceAlpha" result="effect1_dropShadow_135_239"/>
<feOffset dy="8"/>
<feGaussianBlur stdDeviation="4"/>
<feComposite in2="hardAlpha" operator="out"/>
<feColorMatrix type="matrix" values="0 0 0 0 0.816667 0 0 0 0 0.879 0 0 0 0 1 0 0 0 0.15 0"/>
<feBlend mode="normal" in2="BackgroundImageFix" result="effect1_dropShadow_135_239"/>
<feBlend mode="normal" in="SourceGraphic" in2="effect1_dropShadow_135_239" result="shape"/>
</filter>
<clipPath id="clip0_135_239">
<rect width="50" height="50" fill="white" transform="translate(50 35)"/>
</clipPath>
</defs>
</svg>
