<svg width="840" height="1003" viewBox="0 0 840 1003" fill="none" xmlns="http://www.w3.org/2000/svg">
<path d="M210.386 780.815C326.155 846.692 513.845 846.713 629.614 780.815C745.383 714.918 745.366 608.119 629.614 542.242C513.862 476.365 326.155 476.365 210.386 542.242C94.6177 608.119 94.6345 714.938 210.386 780.815Z" fill="#F5F5F5"/>
<path d="M629.21 732.13C650.532 732.13 667.817 722.295 667.817 710.164C667.817 698.033 650.532 688.198 629.21 688.198C607.889 688.198 590.604 698.033 590.604 710.164C590.604 722.295 607.889 732.13 629.21 732.13Z" fill="#EBEBEB"/>
<path d="M201.6 713.314L215.258 703.905C222.884 696.475 228.688 686.723 232.058 675.681C236.275 661.799 235.687 651.248 232.663 645.952C228.95 639.433 219.324 640.576 218.937 654.297C218.131 681.338 211.529 700.094 201.6 713.314Z" fill="#457EDB"/>
<path opacity="0.2" d="M201.6 713.314L215.258 703.905C222.884 696.475 228.688 686.723 232.058 675.681C236.275 661.799 235.687 651.248 232.663 645.952C228.95 639.433 219.324 640.576 218.937 654.297C218.131 681.338 211.529 700.094 201.6 713.314Z" fill="black"/>
<path d="M201.6 714.316C201.422 714.314 201.25 714.244 201.107 714.117C200.965 713.99 200.86 713.812 200.807 713.609C200.755 713.406 200.758 713.188 200.816 712.987C200.874 712.786 200.984 712.613 201.13 712.491C232.714 686.413 226.598 650.044 226.531 649.683C226.508 649.551 226.507 649.416 226.528 649.283C226.548 649.151 226.591 649.025 226.652 648.912C226.714 648.8 226.794 648.702 226.887 648.626C226.98 648.551 227.084 648.497 227.195 648.47C227.305 648.442 227.419 648.44 227.53 648.465C227.64 648.49 227.746 648.541 227.84 648.614C227.935 648.688 228.016 648.783 228.08 648.894C228.143 649.005 228.188 649.13 228.211 649.262C228.211 649.643 234.662 687.256 202.138 714.136C201.98 714.265 201.791 714.328 201.6 714.316Z" fill="white"/>
<path d="M174.233 732.19C174.233 732.19 169.478 727.576 170.621 721.317C171.763 715.059 174.838 710.565 169.579 702.501C164.321 694.437 162.859 683.685 169.142 677.868C173.93 673.354 181.406 679.733 184.094 667.838C186.077 659.132 185.405 639.854 194.695 633.435C203.986 627.015 209.815 636.684 208.354 649.763C207.077 661.458 205.262 672.712 206.674 675.841C209.395 681.859 214.049 681.037 213.83 692.03C213.646 702.26 205.531 710.726 205.531 710.726L174.233 732.19Z" fill="#457EDB"/>
<path d="M189.84 722.381C189.635 722.378 189.437 722.288 189.283 722.126C189.128 721.964 189.028 721.741 189 721.498C186.598 697.727 192.36 656.684 197.064 644.488C197.104 644.352 197.167 644.229 197.25 644.125C197.333 644.022 197.434 643.941 197.545 643.887C197.656 643.834 197.776 643.81 197.896 643.817C198.016 643.823 198.133 643.861 198.24 643.926C198.34 643.98 198.43 644.057 198.505 644.154C198.58 644.25 198.638 644.363 198.676 644.486C198.713 644.61 198.73 644.741 198.724 644.872C198.719 645.003 198.691 645.132 198.643 645.25C193.99 657.286 188.429 698.449 190.73 721.177C190.754 721.44 190.69 721.704 190.551 721.91C190.413 722.117 190.211 722.25 189.991 722.28L189.84 722.381Z" fill="white"/>
<path d="M189.386 703.865C189.258 703.873 189.13 703.838 189.017 703.765C183.187 700.375 179.491 688.279 179.34 687.717C179.299 687.592 179.279 687.459 179.282 687.325C179.284 687.191 179.31 687.059 179.356 686.936C179.402 686.814 179.468 686.704 179.551 686.613C179.633 686.522 179.73 686.452 179.836 686.406C179.941 686.36 180.054 686.341 180.166 686.348C180.278 686.355 180.388 686.389 180.489 686.447C180.59 686.506 180.68 686.588 180.754 686.689C180.828 686.79 180.884 686.908 180.919 687.035C180.919 687.155 184.531 698.87 189.756 701.899C189.927 701.998 190.065 702.164 190.148 702.369C190.23 702.574 190.251 702.807 190.208 703.028C190.165 703.25 190.06 703.447 189.911 703.589C189.762 703.73 189.577 703.806 189.386 703.805V703.865Z" fill="white"/>
<path d="M189.286 711.889C189.117 711.889 188.953 711.828 188.815 711.713C188.677 711.598 188.571 711.436 188.513 711.247C188.429 711.003 188.43 710.728 188.515 710.484C188.6 710.24 188.762 710.046 188.966 709.943C198.778 705.249 204.893 691.308 204.96 691.147C205.063 690.911 205.24 690.732 205.452 690.651C205.665 690.57 205.896 690.594 206.094 690.716C206.292 690.838 206.442 691.05 206.509 691.304C206.577 691.558 206.558 691.833 206.455 692.07C206.186 692.672 199.987 706.834 189.655 711.809C189.54 711.874 189.413 711.902 189.286 711.889Z" fill="white"/>
<path d="M532.224 603.966C532.224 603.966 524.882 589.764 524.16 574.338C523.438 558.912 526.277 552.493 530.174 550.647C534.072 548.802 534.374 554.478 536.374 557.828C538.373 561.178 542.455 559.273 543.967 548.822C545.479 538.37 550.99 520.738 562.447 517.307C575.047 513.576 568.294 531.229 565.118 538.11C561.943 544.99 559.49 554.378 561.574 556.926C563.657 559.473 566.899 554.759 569.974 559.132C573.72 564.408 562.078 583.405 555.391 587.999L532.224 603.966Z" fill="#457EDB"/>
<path d="M542.287 598.009C542.177 598.003 542.068 597.972 541.968 597.917C541.868 597.862 541.778 597.784 541.703 597.687C541.628 597.59 541.57 597.476 541.532 597.353C541.493 597.229 541.476 597.097 541.481 596.966C542.618 572.151 549.099 548.106 560.297 527.157C560.36 527.048 560.441 526.955 560.536 526.884C560.63 526.814 560.735 526.767 560.845 526.746C560.955 526.726 561.067 526.732 561.175 526.764C561.283 526.797 561.384 526.855 561.473 526.936C561.649 527.092 561.767 527.325 561.801 527.583C561.836 527.842 561.784 528.106 561.657 528.32C550.66 548.963 544.296 572.637 543.177 597.066C543.171 597.198 543.143 597.327 543.095 597.445C543.046 597.564 542.979 597.67 542.896 597.758C542.814 597.846 542.717 597.913 542.613 597.956C542.508 597.999 542.397 598.017 542.287 598.009Z" fill="white"/>
<path d="M543.245 586.153C543.104 586.152 542.966 586.11 542.842 586.033C538.138 582.924 535.534 573.696 535.433 573.315C535.396 573.19 535.38 573.057 535.386 572.925C535.392 572.792 535.42 572.662 535.469 572.543C535.517 572.424 535.585 572.317 535.668 572.229C535.751 572.141 535.848 572.074 535.954 572.031C536.165 571.949 536.396 571.97 536.594 572.09C536.793 572.211 536.943 572.42 537.012 572.673C537.012 572.673 539.532 581.559 543.732 584.268C543.922 584.402 544.062 584.619 544.121 584.873C544.181 585.127 544.156 585.399 544.051 585.632C543.975 585.804 543.858 585.946 543.715 586.039C543.571 586.132 543.407 586.172 543.245 586.153Z" fill="white"/>
<path d="M544.068 580.075C543.882 580.073 543.701 579.996 543.556 579.858C543.41 579.72 543.306 579.529 543.261 579.313C543.234 579.186 543.228 579.054 543.243 578.925C543.259 578.796 543.296 578.671 543.352 578.559C543.409 578.447 543.483 578.35 543.571 578.272C543.66 578.195 543.76 578.14 543.866 578.109C555.996 574.438 560.196 566.855 560.229 566.775C560.289 566.663 560.366 566.566 560.457 566.49C560.548 566.414 560.651 566.36 560.759 566.331C560.868 566.302 560.98 566.299 561.089 566.322C561.199 566.345 561.303 566.393 561.397 566.464C561.491 566.535 561.572 566.628 561.636 566.737C561.7 566.845 561.745 566.968 561.769 567.097C561.793 567.226 561.796 567.36 561.777 567.491C561.758 567.622 561.717 567.746 561.657 567.858C561.473 568.199 557.105 576.163 544.286 580.055L544.068 580.075Z" fill="white"/>
<path d="M349.44 572.793C349.44 572.793 333.329 568.099 332.489 532.071C331.598 493.195 336.437 447.819 317.369 444.148C298.301 440.478 287.717 468.22 287.952 500.617C288.17 528.982 297.746 590.566 349.373 602.643L349.44 572.793Z" fill="#457EDB"/>
<path opacity="0.2" d="M349.44 572.793C349.44 572.793 333.329 568.099 332.489 532.071C331.598 493.195 336.437 447.819 317.369 444.148C298.301 440.478 287.717 468.22 287.952 500.617C288.17 528.982 297.746 590.566 349.373 602.643L349.44 572.793Z" fill="black"/>
<path d="M349.44 598.951H349.289C337.68 596.424 328.222 588.781 321.182 576.264C300.317 539.092 306.886 469.685 309.053 457.569C309.101 457.31 309.232 457.085 309.416 456.939C309.601 456.793 309.826 456.738 310.044 456.786C310.262 456.849 310.451 457.008 310.573 457.232C310.695 457.456 310.74 457.727 310.699 457.99C308.566 470.026 302.03 538.551 322.577 575.14C325.568 580.814 329.513 585.685 334.164 589.442C338.814 593.199 344.068 595.761 349.591 596.966C349.701 596.99 349.805 597.039 349.899 597.112C349.992 597.185 350.072 597.279 350.135 597.389C350.197 597.499 350.241 597.623 350.263 597.754C350.285 597.884 350.285 598.019 350.263 598.149C350.228 598.377 350.125 598.583 349.975 598.73C349.824 598.877 349.635 598.955 349.44 598.951Z" fill="white"/>
<path d="M349.44 691.408C332.791 694.096 305.76 694.056 290.153 679.372C274.546 664.688 277.805 652.05 283.802 646.775C289.8 641.499 295.008 635.481 284.693 623.766C274.378 612.051 257.813 593.234 252.437 565.01C247.061 536.786 249.715 519.133 260.266 513.255C270.497 507.558 273.202 516.625 279.468 535.321C285.734 554.017 299.83 537.989 311.892 543.827C323.954 549.664 323.467 561.219 324.223 571.148C324.979 581.078 328.961 583.826 335.798 583.826C342.636 583.826 349.44 588.52 349.44 597.868V691.408Z" fill="#457EDB"/>
<path d="M349.44 658.63C349.368 658.649 349.294 658.649 349.222 658.63C348.499 658.389 331.279 652.411 306.197 624.909C279.485 595.621 266.885 551.69 266.75 551.249C266.686 550.996 266.706 550.723 266.806 550.488C266.906 550.252 267.079 550.072 267.288 549.985C267.498 549.902 267.726 549.92 267.924 550.037C268.122 550.153 268.274 550.358 268.346 550.607C268.464 551.048 280.946 594.498 307.339 623.425C332.069 650.566 349.49 656.644 349.675 656.704C349.781 656.741 349.88 656.803 349.966 656.885C350.052 656.967 350.124 657.069 350.177 657.185C350.23 657.3 350.263 657.427 350.275 657.558C350.287 657.689 350.277 657.821 350.246 657.948C350.192 658.15 350.084 658.327 349.939 658.45C349.793 658.573 349.618 658.636 349.44 658.63Z" fill="white"/>
<path d="M313.202 631.89C313.034 631.893 312.868 631.833 312.729 631.718C312.591 631.603 312.486 631.438 312.43 631.248C307.037 614.719 305.81 579.353 305.71 577.848C305.705 577.584 305.786 577.327 305.937 577.133C306.087 576.938 306.295 576.821 306.516 576.805C306.735 576.809 306.946 576.909 307.107 577.087C307.268 577.265 307.369 577.507 307.39 577.768C307.39 578.129 308.65 614.297 313.942 630.526C313.982 630.65 314.002 630.782 313.999 630.915C313.996 631.047 313.972 631.178 313.926 631.299C313.881 631.421 313.816 631.53 313.735 631.621C313.654 631.712 313.559 631.783 313.454 631.83C313.373 631.865 313.288 631.885 313.202 631.89Z" fill="white"/>
<path d="M313.068 655.661C311.519 655.676 309.971 655.582 308.431 655.38C308.321 655.364 308.214 655.323 308.117 655.258C308.021 655.193 307.935 655.106 307.867 655.001C307.798 654.897 307.747 654.778 307.717 654.65C307.687 654.522 307.679 654.389 307.692 654.257C307.705 654.125 307.74 653.998 307.795 653.882C307.849 653.767 307.922 653.665 308.009 653.583C308.097 653.501 308.197 653.44 308.304 653.405C308.411 653.369 308.523 653.358 308.633 653.374C308.784 653.374 324.425 655.501 331.598 646.775C331.673 646.669 331.765 646.583 331.869 646.522C331.973 646.461 332.086 646.426 332.202 646.42C332.318 646.414 332.433 646.436 332.541 646.485C332.649 646.535 332.747 646.61 332.83 646.708C332.912 646.805 332.977 646.921 333.02 647.049C333.063 647.178 333.083 647.315 333.08 647.453C333.076 647.591 333.049 647.727 332.999 647.852C332.949 647.977 332.879 648.088 332.791 648.179C327.6 654.578 318.545 655.661 313.068 655.661Z" fill="white"/>
<path d="M300.972 275.805L299.158 263.308L289.817 270.65C288.963 268.644 287.754 266.884 286.272 265.494L290.741 251.051L282.341 248.824L276.192 262.866C273.967 263.314 271.811 264.153 269.791 265.354L267.12 254.762L257.141 264.13L257.796 276.567C255.764 279.285 253.921 282.197 252.286 285.273L244.054 284.772L238.274 300.238L245.347 303.849C244.609 307.048 244.142 310.328 243.953 313.638L234.965 323.508L236.762 336.025L246.12 328.683C246.969 330.687 248.179 332.441 249.665 333.819L245.28 348.282L253.68 350.488L262.483 340.258C264.516 339.877 264.012 335.303 266.23 333.999L268.901 344.551L278.863 335.203L278.611 330.308C280.627 327.62 288.254 321.702 289.901 318.613L291.967 314.601L297.746 299.135L295.058 293.317L292.068 285.735L300.972 275.805ZM270.48 316.948C262.819 324.13 260.4 325.714 259.106 316.106C257.813 306.497 262.198 291.893 269.858 284.692C277.519 277.49 280.442 276.989 281.82 286.577C283.198 296.166 278.158 309.847 270.48 316.948Z" fill="#E0E0E0"/>
<path d="M282.408 248.824L293.311 256.327L287.162 270.329L276.259 262.826L282.408 248.824Z" fill="#F5F5F5"/>
<path d="M310.061 270.81L300.72 278.152L289.817 270.65L299.157 263.308L310.061 270.81Z" fill="#F5F5F5"/>
<path d="M308.566 306.577L301.493 302.986L290.59 295.484L297.662 299.075L308.566 306.577Z" fill="#E0E0E0"/>
<path d="M245.263 348.282L256.166 355.764L260.635 341.321L249.732 333.818L245.263 348.282Z" fill="#E0E0E0"/>
<path d="M279.703 352.053L268.817 344.551L266.146 333.999L277.049 341.501L279.703 352.053Z" fill="#E0E0E0"/>
<path d="M311.858 283.307L310.061 270.81L300.72 278.152C299.86 276.145 298.645 274.386 297.158 272.997L301.627 258.553L293.311 256.327L287.145 270.369C284.921 270.817 282.764 271.655 280.745 272.856L278.09 262.305L268.111 271.673L268.766 284.11C266.732 286.847 264.889 289.779 263.256 292.876L255.007 292.374L249.228 307.841L256.301 311.452C255.569 314.659 255.102 317.945 254.906 321.261L245.935 330.99L247.733 343.507L257.073 336.165C257.933 338.166 259.149 339.919 260.635 341.301L256.166 355.744L264.566 357.971L270.715 343.929C272.948 343.486 275.112 342.64 277.133 341.421L279.787 351.973L289.766 342.625L289.111 330.188C291.143 327.469 292.986 324.558 294.621 321.482L302.87 321.963L308.649 306.497L301.476 302.906C302.22 299.701 302.692 296.415 302.887 293.097L311.858 283.307ZM281.4 324.531C273.756 331.712 266.431 329.766 265.037 320.178C263.642 310.589 268.733 296.968 276.393 289.787C284.054 282.605 291.362 284.571 292.757 294.16C294.151 303.749 289.061 317.349 281.4 324.531Z" fill="#EBEBEB"/>
<path d="M278.09 262.264L267.187 254.762L257.208 264.13L268.111 271.632L278.09 262.264Z" fill="#F5F5F5"/>
<path d="M257.208 264.13L257.863 276.567L268.766 284.07L268.111 271.632L257.208 264.13Z" fill="#E0E0E0"/>
<path d="M263.256 292.776L252.353 285.273L244.121 284.792L255.007 292.294L263.256 292.776Z" fill="#F5F5F5"/>
<path d="M244.121 284.792L238.342 300.238L249.228 307.741L255.007 292.294L244.121 284.792Z" fill="#E0E0E0"/>
<path d="M254.906 321.141L244.02 313.638L235.032 323.508L245.918 331.01L254.906 321.141Z" fill="#F5F5F5"/>
<path d="M247.733 343.528L236.83 336.025L235.032 323.508L245.918 331.01L247.733 343.528Z" fill="#E0E0E0"/>
<path d="M293.311 256.327L282.408 248.824L290.741 251.051L301.627 258.553L293.311 256.327Z" fill="#F5F5F5"/>
<path d="M252.151 219.075V200.399L239.702 207.099C239.043 203.931 237.904 200.933 236.342 198.253L244.188 179.377L234.612 172.777L224.834 190.329C222.11 190.045 219.364 190.365 216.737 191.272L215.359 175.044L201.818 184.392L200.458 202.446C197.511 205.563 194.801 208.987 192.36 212.676L182.582 208.664L173.006 228.483L180.835 236.507C179.389 240.875 178.264 245.386 177.475 249.988L165.026 260.439V279.135L177.475 272.435C178.135 275.603 179.273 278.602 180.835 281.281L173.04 300.178L182.616 306.778L192.394 289.225C195.118 289.508 197.864 289.189 200.491 288.282L201.852 304.511L215.393 295.163L216.77 277.109C220.997 275.268 224.741 272.126 227.623 268.002L234.646 270.95L244.222 251.151L238.342 245.133C239.618 240.115 240.091 234.854 239.736 229.627L252.151 219.075ZM208.589 265.735C198.206 272.896 191.789 267.741 191.789 253.478C191.789 239.216 200.374 221.583 210.773 214.421C221.172 207.26 227.455 212.415 227.455 226.798C227.455 241.181 218.988 258.553 208.589 265.735Z" fill="#E0E0E0"/>
<path d="M245.498 180.259L234.612 172.777L224.834 190.329L235.721 197.832L245.498 180.259Z" fill="#F5F5F5"/>
<path d="M263.054 207.902L252.151 200.399L239.702 207.099L250.606 214.602L263.054 207.902Z" fill="#F5F5F5"/>
<path d="M212.705 312.013L201.818 304.511L200.458 288.282L211.344 295.785L212.705 312.013Z" fill="#E0E0E0"/>
<path d="M172.99 300.178L183.893 307.68L191.738 288.804L180.835 281.301L172.99 300.178Z" fill="#E0E0E0"/>
<path d="M263.054 226.678V208.002L250.605 214.642C249.953 211.471 248.814 208.471 247.245 205.796L255.091 186.919L245.515 180.299L235.737 197.872C233.013 197.578 230.266 197.898 227.64 198.815L226.262 182.546L212.721 191.894L211.344 209.948C208.401 213.071 205.692 216.494 203.246 220.179L193.469 216.167L183.893 235.986L191.738 244.01C190.284 248.375 189.16 252.886 188.378 257.49L175.929 267.941V286.637L188.378 279.937C189.03 283.109 190.17 286.109 191.738 288.784L183.893 307.66L193.469 314.26L203.246 296.708C205.971 296.992 208.716 296.672 211.344 295.765L212.721 311.993L226.262 302.645L227.623 284.591C230.57 281.473 233.28 278.05 235.721 274.361L245.498 278.373L255.074 258.573L247.229 250.549C248.682 246.184 249.807 241.673 250.589 237.069L263.054 226.678ZM219.492 273.338C209.093 280.499 200.659 274.682 200.659 260.359C200.659 246.036 209.059 228.604 219.492 221.422C229.925 214.241 238.308 220.078 238.308 234.401C238.308 248.724 229.874 266.056 219.492 273.237V273.338Z" fill="#EBEBEB"/>
<path d="M192.36 212.716L203.246 220.219L193.469 216.147L182.582 208.624L192.36 212.716Z" fill="#F0F0F0"/>
<path d="M182.581 208.644L173.003 228.47L183.902 235.978L193.481 216.152L182.581 208.644Z" fill="#F5F5F5"/>
<path d="M172.99 228.443L183.893 235.946L191.738 244.01L180.835 236.527L172.99 228.443Z" fill="#E0E0E0"/>
<path d="M177.475 250.008L188.378 257.51L175.93 267.962L165.026 260.459L177.475 250.008Z" fill="#F5F5F5"/>
<path d="M165.026 260.459L175.93 267.961V286.657L165.026 279.155V260.459Z" fill="#E0E0E0"/>
<path d="M226.262 182.546L215.359 175.044L201.818 184.392L212.705 191.894L226.262 182.546Z" fill="#F5F5F5"/>
<path d="M366.039 718.248L523.959 609.363C524.306 609.217 524.608 608.945 524.821 608.586C525.034 608.226 525.149 607.797 525.149 607.357C525.149 606.916 525.034 606.487 524.821 606.127C524.608 605.768 524.306 605.497 523.959 605.351L509.359 595.321C508.455 594.777 507.457 594.494 506.444 594.494C505.432 594.494 504.434 594.777 503.53 595.321L345.559 704.106C345.211 704.252 344.91 704.523 344.697 704.883C344.484 705.242 344.369 705.672 344.369 706.112C344.369 706.552 344.484 706.982 344.697 707.341C344.91 707.701 345.211 707.972 345.559 708.118L360.209 718.148C361.107 718.707 362.101 719.007 363.114 719.025C364.126 719.042 365.128 718.776 366.039 718.248Z" fill="#E0E0E0"/>
<path d="M519.624 188.965L377.227 287.139C375.11 288.788 373.349 291.01 372.085 293.624C370.821 296.238 370.091 299.17 369.953 302.184V705.53C369.953 711.067 373.212 713.314 377.227 710.545L519.624 612.372C521.744 610.726 523.507 608.505 524.772 605.89C526.036 603.276 526.765 600.341 526.898 597.327V193.98C526.898 188.444 523.656 186.197 519.624 188.965Z" fill="#455A64"/>
<path d="M377.227 287.139L519.624 188.965C523.219 186.478 526.193 188.022 526.798 192.335C526.462 189.624 525.649 187.028 524.412 184.718C523.176 182.408 521.544 180.438 519.624 178.935L513.71 174.923C511.456 173.557 508.964 172.846 506.436 172.846C503.908 172.846 501.416 173.557 499.162 174.923L356.748 273.017C354.603 274.623 352.834 276.852 351.607 279.496L372.086 293.538C373.313 290.915 375.083 288.711 377.227 287.139Z" fill="#37474F"/>
<path d="M349.44 691.408C349.578 694.422 350.309 697.354 351.572 699.968C352.836 702.582 354.598 704.803 356.715 706.453L362.645 710.465C364.698 711.691 366.944 712.386 369.237 712.503C371.53 712.621 373.818 712.159 375.951 711.147C372.591 712.712 369.919 710.405 369.919 705.45V302.184C370.004 299.157 370.738 296.208 372.053 293.618L351.574 279.576C350.277 282.146 349.544 285.064 349.44 288.062V691.408Z" fill="#263238"/>
<path d="M381.142 340.88L515.76 248.102C518.179 246.457 520.128 247.801 520.128 251.111V549.644C520.047 551.453 519.61 553.214 518.851 554.783C518.091 556.352 517.033 557.684 515.76 558.671L381.192 651.448C378.773 653.113 376.824 651.769 376.824 648.439V349.907C376.901 348.103 377.331 346.346 378.081 344.778C378.831 343.21 379.88 341.875 381.142 340.88Z" fill="white"/>
<path d="M448.426 253.338C447.683 253.92 447.064 254.703 446.621 255.623C446.177 256.542 445.921 257.574 445.872 258.634C445.872 260.64 447.015 261.382 448.426 260.399C449.172 259.82 449.792 259.038 450.236 258.118C450.68 257.197 450.934 256.164 450.979 255.103C450.979 253.157 449.837 252.375 448.426 253.338Z" fill="#37474F"/>
<path d="M448.426 619.332C445.489 621.627 443.046 624.714 441.295 628.346C439.543 631.977 438.533 636.05 438.346 640.235C438.346 647.918 442.865 651.047 448.426 647.196C451.362 644.901 453.804 641.812 455.555 638.181C457.306 634.55 458.317 630.477 458.506 626.293C458.539 618.61 454.003 615.481 448.426 619.332Z" fill="#37474F"/>
<path d="M424.25 284.391C422.774 285.561 421.549 287.129 420.673 288.969C419.798 290.809 419.297 292.869 419.21 294.982C419.21 298.874 421.495 300.459 424.25 298.513C425.743 297.354 426.984 295.79 427.875 293.95C428.765 292.109 429.279 290.044 429.374 287.921C429.374 284.03 427.09 282.445 424.25 284.391Z" fill="#37474F"/>
<path d="M436.8 283.067C436.8 285.674 438.48 286.657 440.446 285.273L474.046 262.064C475.086 261.288 475.959 260.229 476.593 258.974C477.226 257.719 477.603 256.304 477.691 254.842C477.691 252.255 476.011 251.272 474.046 252.656L440.446 275.865C439.407 276.639 438.536 277.695 437.902 278.946C437.269 280.197 436.891 281.609 436.8 283.067Z" fill="#37474F"/>
<path d="M360.797 353.798C361.989 354.725 362.982 355.975 363.694 357.446C364.406 358.917 364.818 360.567 364.896 362.264C364.896 365.393 363.065 366.657 360.797 365.092C359.609 364.161 358.62 362.91 357.911 361.44C357.202 359.97 356.792 358.321 356.715 356.627C356.715 353.517 358.546 352.254 360.797 353.798Z" fill="#37474F"/>
<path d="M360.797 391.471C361.989 392.398 362.982 393.648 363.694 395.119C364.406 396.589 364.818 398.24 364.896 399.936C364.896 403.046 363.065 404.309 360.797 402.765C359.609 401.834 358.62 400.583 357.911 399.113C357.202 397.642 356.792 395.994 356.715 394.299C356.715 391.17 358.546 389.906 360.797 391.471Z" fill="#37474F"/>
<path d="M359.52 354.56C360.712 355.488 361.705 356.737 362.417 358.208C363.129 359.679 363.541 361.329 363.619 363.026C363.619 366.135 361.788 367.399 359.52 365.854C358.328 364.927 357.335 363.677 356.623 362.207C355.911 360.736 355.499 359.085 355.421 357.389C355.438 354.26 357.269 353.056 359.52 354.56Z" fill="#455A64"/>
<path d="M359.52 392.213C360.715 393.142 361.708 394.395 362.421 395.87C363.133 397.344 363.544 398.999 363.619 400.699C363.619 403.808 361.788 405.072 359.52 403.507C358.325 402.583 357.331 401.334 356.618 399.863C355.905 398.391 355.495 396.739 355.421 395.042C355.438 391.932 357.269 390.669 359.52 392.213Z" fill="#455A64"/>
<path d="M547.378 260.559C547.378 257.229 545.429 255.885 543.01 257.55L526.899 268.643L408.442 350.328C407.169 351.315 406.11 352.647 405.351 354.216C404.592 355.785 404.154 357.546 404.074 359.355V657.808C404.074 661.138 406.023 662.482 408.442 660.817L526.949 579.112L543.01 568.039C544.282 567.052 545.341 565.72 546.1 564.151C546.859 562.582 547.297 560.821 547.378 559.012V260.559Z" fill="white"/>
<path d="M549.058 260.559C549.163 259.553 549.018 258.532 548.641 257.624C548.263 256.716 547.67 255.961 546.934 255.454C546.199 254.947 545.355 254.709 544.508 254.772C543.66 254.834 542.847 255.194 542.17 255.805L526.798 266.417L407.602 348.663C406.067 349.819 404.791 351.404 403.884 353.281C402.976 355.158 402.465 357.27 402.394 359.435V657.807C402.326 658.809 402.487 659.814 402.86 660.714C403.233 661.615 403.803 662.378 404.51 662.923C405.112 663.34 405.797 663.555 406.493 663.545C407.478 663.508 408.438 663.169 409.282 662.562L528.562 580.316L543.9 569.744C545.426 568.576 546.695 566.988 547.601 565.114C548.507 563.24 549.024 561.134 549.108 558.972L549.058 260.559ZM526.831 576.885L525.454 577.848L407.669 659.051C407.471 659.233 407.241 659.359 406.997 659.422C406.753 659.484 406.501 659.481 406.258 659.412C406.039 659.252 405.821 658.69 405.821 657.767V359.355C405.908 357.898 406.271 356.484 406.882 355.219C407.493 353.955 408.336 352.872 409.349 352.053L527.016 270.81L543.816 259.195C544.014 259.014 544.243 258.887 544.488 258.825C544.732 258.762 544.984 258.765 545.227 258.834C545.446 258.995 545.664 259.556 545.664 260.479V559.012C545.577 560.469 545.214 561.882 544.603 563.147C543.992 564.412 543.148 565.495 542.136 566.314L526.798 576.885H526.831Z" fill="#457EDB"/>
<path d="M475.726 329.907C490.846 319.516 503.026 327.901 503.026 348.743C503.026 369.585 490.795 394.881 475.726 405.192C460.656 415.503 448.426 407.198 448.426 386.376C448.426 365.553 460.656 340.318 475.726 329.907Z" fill="#457EDB"/>
<path d="M475.726 346.276C480.615 342.906 484.579 345.634 484.579 352.294C484.413 355.963 483.525 359.533 481.987 362.715C480.448 365.897 478.303 368.602 475.726 370.609C470.837 373.979 466.872 371.25 466.872 364.591C467.038 360.922 467.926 357.351 469.465 354.169C471.003 350.987 473.148 348.283 475.726 346.276Z" fill="#457EDB"/>
<path d="M492.979 382.223C492.979 371.15 486.478 366.657 478.431 372.193L473.391 375.664C465.36 381.2 458.842 394.68 458.842 405.754V408.743C463.495 410.568 469.342 409.585 475.642 405.192C482.621 400.052 488.522 393.073 492.895 384.791L492.979 382.223Z" fill="#457EDB"/>
<path opacity="0.7" d="M475.726 346.276C480.615 342.906 484.579 345.634 484.579 352.294C484.413 355.963 483.525 359.533 481.987 362.715C480.448 365.897 478.303 368.602 475.726 370.609C470.837 373.979 466.872 371.25 466.872 364.591C467.038 360.922 467.926 357.351 469.465 354.169C471.003 350.987 473.148 348.283 475.726 346.276Z" fill="white"/>
<path opacity="0.7" d="M492.979 382.223C492.979 371.15 486.478 366.657 478.431 372.193L473.391 375.664C465.36 381.2 458.842 394.68 458.842 405.754V408.743C463.495 410.568 469.342 409.585 475.642 405.192C482.621 400.052 488.522 393.073 492.895 384.791L492.979 382.223Z" fill="white"/>
<path d="M422.906 451.029L458.035 426.817C459.715 425.713 460.942 426.596 460.942 428.823V430.207C460.888 431.412 460.597 432.586 460.092 433.632C459.587 434.677 458.882 435.566 458.035 436.225L422.906 460.437C421.31 461.541 420 460.638 420 458.431V457.047C420.055 455.842 420.346 454.669 420.851 453.623C421.356 452.578 422.06 451.689 422.906 451.029Z" fill="#457EDB"/>
<path opacity="0.1" d="M422.906 451.029L458.035 426.817C459.715 425.713 460.942 426.596 460.942 428.823V430.207C460.888 431.412 460.597 432.586 460.092 433.632C459.587 434.677 458.882 435.566 458.035 436.225L422.906 460.437C421.31 461.541 420 460.638 420 458.431V457.047C420.055 455.842 420.346 454.669 420.851 453.623C421.356 452.578 422.06 451.689 422.906 451.029Z" fill="black"/>
<path d="M421.462 480.256L527.738 406.997C528.528 406.436 529.183 406.877 529.183 408V422.805C529.154 423.405 529.008 423.99 528.757 424.512C528.506 425.034 528.158 425.48 527.738 425.814L421.462 499.073C420.655 499.634 420 499.173 420 498.07V483.265C420.029 482.662 420.176 482.075 420.43 481.553C420.684 481.03 421.037 480.586 421.462 480.256Z" fill="#457EDB"/>
<path opacity="0.2" d="M421.462 480.256L527.738 406.997C528.528 406.436 529.183 406.877 529.183 408V422.805C529.154 423.405 529.008 423.99 528.757 424.512C528.506 425.034 528.158 425.48 527.738 425.814L421.462 499.073C420.655 499.634 420 499.173 420 498.07V483.265C420.029 482.662 420.176 482.075 420.43 481.553C420.684 481.03 421.037 480.586 421.462 480.256Z" fill="white"/>
<path d="M422.906 516.886L458.035 492.674C459.715 491.57 460.942 492.473 460.942 494.68V496.064C460.89 497.27 460.599 498.444 460.094 499.49C459.589 500.536 458.883 501.424 458.035 502.082L422.906 526.294C421.31 527.417 420 526.515 420 524.288V522.904C420.057 521.7 420.35 520.528 420.855 519.483C421.359 518.438 422.062 517.548 422.906 516.886Z" fill="#457EDB"/>
<path opacity="0.1" d="M422.906 516.886L458.035 492.674C459.715 491.57 460.942 492.473 460.942 494.68V496.064C460.89 497.27 460.599 498.444 460.094 499.49C459.589 500.536 458.883 501.424 458.035 502.082L422.906 526.294C421.31 527.417 420 526.515 420 524.288V522.904C420.057 521.7 420.35 520.528 420.855 519.483C421.359 518.438 422.062 517.548 422.906 516.886Z" fill="black"/>
<path d="M421.462 546.113L527.738 472.854C528.528 472.293 529.183 472.754 529.183 473.857V488.662C529.154 489.262 529.008 489.847 528.757 490.369C528.506 490.891 528.158 491.337 527.738 491.671L421.462 564.93C420.655 565.491 420 565.05 420 563.927V549.122C420.029 548.519 420.176 547.932 420.43 547.41C420.684 546.887 421.037 546.443 421.462 546.113Z" fill="#457EDB"/>
<path opacity="0.2" d="M421.462 546.113L527.738 472.854C528.528 472.293 529.183 472.754 529.183 473.857V488.662C529.154 489.262 529.008 489.847 528.757 490.369C528.506 490.891 528.158 491.337 527.738 491.671L421.462 564.93C420.655 565.491 420 565.05 420 563.927V549.122C420.029 548.519 420.176 547.932 420.43 547.41C420.684 546.887 421.037 546.443 421.462 546.113Z" fill="white"/>
<path d="M463.848 554.519L505.848 525.612C507.528 524.489 508.771 525.391 508.771 527.618V543.104C508.716 544.312 508.423 545.486 507.915 546.532C507.407 547.578 506.698 548.466 505.848 549.122L463.848 578.049C462.168 579.152 460.942 578.25 460.942 576.043V560.537C461 559.332 461.293 558.161 461.798 557.116C462.303 556.072 463.005 555.182 463.848 554.519Z" fill="#457EDB"/>
<path opacity="0.1" d="M463.848 554.519L505.848 525.612C507.528 524.489 508.771 525.391 508.771 527.618V543.104C508.716 544.312 508.423 545.486 507.915 546.532C507.407 547.578 506.698 548.466 505.848 549.122L463.848 578.049C462.168 579.152 460.942 578.25 460.942 576.043V560.537C461 559.332 461.293 558.161 461.798 557.116C462.303 556.072 463.005 555.182 463.848 554.519Z" fill="black"/>
<path d="M563.304 489.163C563.304 489.163 542.674 455.181 541.464 451.049C540.506 448 541.464 443.466 541.766 441.36C542.069 439.254 542.338 434.56 542.64 433.336C543.144 431.049 540.674 431.511 539.28 433.597C537.886 435.683 537.415 439.856 536.693 440.538C535.97 441.22 530.477 431.651 527.604 427.238C524.731 422.825 522.934 420.137 521.17 421.781C519.91 422.965 520.85 425.533 522.934 429.304C524.15 431.335 525.272 433.444 526.294 435.623C526.613 436.445 524.899 436.506 523.975 438.211C523.253 439.535 523.975 441.681 522.967 442.704C522.347 443.268 521.922 444.084 521.773 444.998C521.624 445.912 521.762 446.859 522.161 447.659C524.031 451.166 526.443 454.215 529.267 456.646C532.358 459.193 533.602 460.096 535.433 463.566C537.264 467.037 553.694 502.483 554.803 504.609C555.912 506.736 558.046 511.069 561.288 511.189C564.53 511.309 591.075 484.028 592.435 482.664C596.803 478.311 598.198 477.689 598.937 481.6C599.192 482.991 599.383 484.397 599.508 485.813C600.029 490.788 602.868 508.561 602.868 508.561C602.868 508.561 616.308 516.324 627.346 512.573C638.383 508.822 642.113 503.225 642.113 503.225L636.586 492.473C638.081 488.04 644.986 470.066 647.22 457.488L612.612 450.808C611.906 450.628 610.764 450.287 609.252 449.825C607.354 449.224 602.532 447.238 598.886 451.049C586.992 463.426 563.338 489.163 563.338 489.163" fill="#FFA8A7"/>
<path d="M631.915 697.667L625.716 707.958C628.533 709.528 631.612 710.317 634.721 710.264C640.282 710.505 641.81 708.258 642.012 707.817C642.953 705.41 641.491 701.077 641.088 697.346L631.915 697.667Z" fill="#37474F"/>
<path d="M626.069 703.023C626.069 703.023 618.543 702.441 613.351 701.679C608.16 700.916 604.044 703.925 605.254 706.473C606.463 709.021 609.336 711.147 613.805 712.932C617.619 714.477 622.205 715.58 626.17 716.944C630.135 718.308 632.89 720.094 635.191 719.131C637.762 718.068 638.871 716.844 638.652 714.597C638.091 711.402 637.396 708.241 636.569 705.129L626.069 703.023Z" fill="#37474F"/>
<path d="M642.012 687.336C642.012 687.336 641.071 696.684 641.004 698.69C640.937 700.696 633.36 701.338 631.915 697.667L631.68 686.232L642.012 687.336Z" fill="#F28F8F"/>
<path d="M634.385 693.073L637.09 707.275C637.09 707.275 637.342 709.001 631.159 710.104C624.977 711.207 615.266 706.232 613.603 705.229C611.94 704.226 611.755 702.2 617.837 702.601C623.918 703.003 626.069 703.023 626.069 703.023L624.086 696.744L634.385 693.073Z" fill="#FFA8A7"/>
<path d="M647.119 457.368L651.403 455.944C651.403 455.944 660.358 489.785 661.349 493.055C662.34 496.324 663.466 499.775 661.534 503.807C659.232 508.601 647.119 527.879 647.119 527.879L639.425 518.892L648.161 499.795L640.433 481.139L647.119 457.368Z" fill="#F28F8F"/>
<path d="M603.12 413.416C602.116 411.165 601.606 408.647 601.638 406.096C601.67 403.546 602.244 401.047 603.305 398.833C607.572 389.385 617.081 384.791 628.404 386.536C633.646 387.359 639.828 392.554 643.205 400.317C646.934 408.923 647.287 426.255 648.245 432.814L603.12 413.416Z" fill="#37474F"/>
<path d="M602.818 417.128C602.818 417.128 600.13 423.246 600.6 423.808C601.297 424.294 602.058 424.633 602.851 424.811L602.818 417.128Z" fill="#FFA8A7"/>
<path d="M610.983 397.79C608.059 400.057 603.019 404.229 602.801 417.97C602.566 432.012 604.246 436.646 605.993 438.271C607.169 439.374 614.074 438.812 617.031 437.99C619.987 437.168 628.505 432.132 631.579 424.49C635.191 415.503 634.452 402.424 629.093 398.412C626.365 396.486 623.273 395.418 620.105 395.309C616.937 395.201 613.798 396.054 610.983 397.79Z" fill="#FFA8A7"/>
<path d="M642.012 503.145C647.187 512.774 652.092 521.199 653.167 532.071C655.385 554.92 648.127 581.038 646.565 597.948C649.503 602.758 651.197 608.491 651.437 614.438C651.437 621.439 642.012 687.336 642.012 687.336C642.012 687.336 635.158 689.823 631.68 686.232L625.212 565.01L628.572 550.246L642.012 503.145Z" fill="#457EDB"/>
<path opacity="0.2" d="M642.012 503.145C647.187 512.774 652.092 521.199 653.167 532.071C655.385 554.92 648.127 581.038 646.565 597.948C649.503 602.758 651.197 608.491 651.437 614.438C651.437 621.439 642.012 687.336 642.012 687.336C642.012 687.336 635.158 689.823 631.68 686.232L625.212 565.01L628.572 550.246L642.012 503.145Z" fill="black"/>
<path d="M625.212 565.01L628.572 550.246C635.006 548.224 641.211 545.28 647.052 541.48C647.052 541.48 643.558 549.082 633.511 553.255L628.32 572.211L627.883 615.641L625.212 565.01Z" fill="#457EDB"/>
<path opacity="0.3" d="M625.212 565.01L628.572 550.246C635.006 548.224 641.211 545.28 647.052 541.48C647.052 541.48 643.558 549.082 633.511 553.255L628.32 572.211L627.883 615.641L625.212 565.01Z" fill="black"/>
<path d="M642.012 503.145C644.784 508.561 651.403 517.789 649.992 526.675C648.312 537.427 643.44 544.99 628.622 550.246L614.712 610.426C614.712 610.426 621.953 618.45 624.17 626.213C626.388 633.976 634.385 693.113 634.385 693.113C634.385 693.113 631.898 697.948 624.086 696.784C624.086 696.784 596.854 622.562 594.938 617.728C592.614 612.832 591.8 607.118 592.637 601.579C593.494 593.796 602.717 508.601 602.717 508.601L642.012 503.145Z" fill="#457EDB"/>
<path opacity="0.2" d="M642.012 503.145C644.784 508.561 651.403 517.789 649.992 526.675C648.312 537.427 643.44 544.99 628.622 550.246L614.712 610.426C614.712 610.426 621.953 618.45 624.17 626.213C626.388 633.976 634.385 693.113 634.385 693.113C634.385 693.113 631.898 697.948 624.086 696.784C624.086 696.784 596.854 622.562 594.938 617.728C592.614 612.832 591.8 607.118 592.637 601.579C593.494 593.796 602.717 508.601 602.717 508.601L642.012 503.145Z" fill="black"/>
<path d="M647.119 457.368L612.511 450.688C611.806 450.507 610.663 450.166 609.151 449.705C609.151 449.705 607.673 475.623 598.786 481.56C599.004 482.804 599.189 484.188 599.357 485.773C599.878 490.748 602.717 508.521 602.717 508.521C602.717 508.521 616.157 516.284 627.194 512.533C638.232 508.782 641.962 503.185 641.962 503.185L636.434 492.433C637.98 487.959 644.935 469.986 647.119 457.368Z" fill="#457EDB"/>
<path opacity="0.7" d="M647.119 457.368L612.511 450.688C611.806 450.507 610.663 450.166 609.151 449.705C609.151 449.705 607.673 475.623 598.786 481.56C599.004 482.804 599.189 484.188 599.357 485.773C599.878 490.748 602.717 508.521 602.717 508.521C602.717 508.521 616.157 516.284 627.194 512.533C638.232 508.782 641.962 503.185 641.962 503.185L636.434 492.433C637.98 487.959 644.935 469.986 647.119 457.368Z" fill="white"/>
<path d="M637.997 488.16C633.401 491.455 628.585 494.294 623.599 496.645C628.125 496.538 632.555 495.075 636.485 492.393L637.997 488.16Z" fill="#457EDB"/>
<path d="M610.126 398.472C610.126 398.472 608.446 411.511 612.411 419.174C612.411 419.174 613.889 413.978 617.568 414.961C621.247 415.944 621.449 421.741 618.862 424.991C618.204 425.903 617.345 426.574 616.382 426.929C615.419 427.284 614.392 427.308 613.419 426.997C613.419 426.997 612.831 436.425 612.511 444.329C612.192 452.233 610.445 469.464 617.887 476.425C625.33 483.386 644.011 485.833 652.764 471.229C657.636 463.105 651.168 448.742 648.161 432.634C645.389 417.83 643.826 395.884 630.672 392.353C617.518 388.823 610.126 398.472 610.126 398.472Z" fill="#37474F"/>
<path d="M658.392 220.319L655.62 222.325C655.853 221.147 655.982 219.944 656.007 218.734C656.007 212.014 652.059 209.306 647.187 212.716C645.704 213.784 644.381 215.14 643.272 216.728C643.272 207.701 637.963 204.03 631.411 208.544C627.959 211.232 625.085 214.855 623.025 219.117C620.964 223.38 619.774 228.163 619.551 233.077C619.551 233.539 619.551 233.98 619.551 234.421C617.863 234.168 616.154 234.637 614.729 235.745C612.162 237.743 610.025 240.435 608.493 243.603C606.96 246.771 606.075 250.326 605.909 253.98C605.908 254.829 605.981 255.676 606.127 256.507L604.649 257.53C600.634 260.299 597.375 265.695 597.375 269.566C597.375 273.438 600.634 274.361 604.649 271.572L658.409 234.562C662.424 231.793 665.683 226.397 665.683 222.526C665.683 218.654 662.407 217.531 658.392 220.319Z" fill="#EBEBEB"/>
</svg>
