<svg width="100" height="100" viewBox="0 0 100 100" fill="none" xmlns="http://www.w3.org/2000/svg">
<g clip-path="url(#clip0_90_57)">
<path d="M44.8242 91.8457C44.4987 93.0827 44.2546 94.3359 44.0918 95.6055C43.929 96.875 43.8151 98.1771 43.75 99.5117C39.5833 99.0234 35.612 98.0469 31.8359 96.582C28.0599 95.1172 24.5605 93.2454 21.3379 90.9668C18.1152 88.6881 15.1855 86.0514 12.5488 83.0566C9.91211 80.0619 7.66602 76.8066 5.81055 73.291C3.95508 69.7754 2.52279 66.0645 1.51367 62.1582C0.504557 58.252 0 54.1992 0 50C0 45.4102 0.585938 40.9831 1.75781 36.7188C2.92969 32.4544 4.60612 28.4668 6.78711 24.7559C8.9681 21.0449 11.5723 17.6758 14.5996 14.6484C17.627 11.6211 21.0124 9.01693 24.7559 6.83594C28.4993 4.65495 32.4707 2.97852 36.6699 1.80664C40.8691 0.634766 45.3125 0.0325521 50 0C54.5898 0 59.0007 0.585938 63.2324 1.75781C67.4642 2.92969 71.4518 4.6224 75.1953 6.83594C78.9388 9.04948 82.3079 11.6536 85.3027 14.6484C88.2975 17.6432 90.918 21.0286 93.1641 24.8047C95.4102 28.5807 97.0866 32.5521 98.1934 36.7188C99.3001 40.8854 99.9023 45.3125 100 50H96.5332C96.0775 49.2513 95.6055 48.5189 95.1172 47.8027C94.6289 47.0866 94.0592 46.403 93.4082 45.752C93.2129 42.9199 92.7083 40.1693 91.8945 37.5H32.0801C31.8197 39.5833 31.6243 41.6504 31.4941 43.7012C31.3639 45.752 31.2826 47.8516 31.25 50C31.25 52.1159 31.3151 54.1992 31.4453 56.25C31.5755 58.3008 31.7871 60.3841 32.0801 62.5H50C50 63.5417 50.0814 64.5833 50.2441 65.625C50.4069 66.6667 50.6185 67.7083 50.8789 68.75H33.1543C33.5449 70.6055 34.0658 72.64 34.7168 74.8535C35.3678 77.0671 36.1816 79.2318 37.1582 81.3477C38.1348 83.4635 39.2578 85.4492 40.5273 87.3047C41.7969 89.1602 43.2292 90.6738 44.8242 91.8457ZM89.502 31.25C88.2324 28.6133 86.735 26.1393 85.0098 23.8281C83.2845 21.5169 81.3314 19.401 79.1504 17.4805C76.9694 15.5599 74.6582 13.8509 72.2168 12.3535C69.7754 10.8561 67.1387 9.63542 64.3066 8.69141C65.4785 10.319 66.5202 12.0443 67.4316 13.8672C68.3431 15.6901 69.1732 17.5618 69.9219 19.4824C70.6706 21.403 71.3053 23.3561 71.8262 25.3418C72.347 27.3275 72.8027 29.2969 73.1934 31.25H89.502ZM50 6.25C48.3724 6.25 46.875 6.68945 45.5078 7.56836C44.1406 8.44727 42.8711 9.60286 41.6992 11.0352C40.5273 12.4674 39.4857 14.0788 38.5742 15.8691C37.6628 17.6595 36.8327 19.4987 36.084 21.3867C35.3353 23.2747 34.7331 25.0651 34.2773 26.7578C33.8216 28.4505 33.4473 29.9479 33.1543 31.25H66.8457C66.5853 29.9805 66.2109 28.4831 65.7227 26.7578C65.2344 25.0326 64.6322 23.2422 63.916 21.3867C63.1999 19.5312 62.3861 17.7083 61.4746 15.918C60.5632 14.1276 59.5215 12.5 58.3496 11.0352C57.1777 9.57031 55.8919 8.41471 54.4922 7.56836C53.0924 6.72201 51.5951 6.28255 50 6.25ZM35.7422 8.64258C32.9753 9.58659 30.3385 10.791 27.832 12.2559C25.3255 13.7207 22.998 15.4297 20.8496 17.3828C18.7012 19.3359 16.748 21.4681 14.9902 23.7793C13.2324 26.0905 11.735 28.5807 10.498 31.25H26.8066C27.1647 29.4596 27.6042 27.5553 28.125 25.5371C28.6458 23.5189 29.2969 21.5007 30.0781 19.4824C30.8594 17.4642 31.7057 15.5273 32.6172 13.6719C33.5286 11.8164 34.5703 10.14 35.7422 8.64258ZM6.25 50C6.25 54.3294 6.85221 58.4961 8.05664 62.5H25.7812C25.5208 60.4167 25.3255 58.3496 25.1953 56.2988C25.0651 54.248 25 52.1484 25 50C25 47.8841 25.0651 45.8008 25.1953 43.75C25.3255 41.6992 25.5208 39.6159 25.7812 37.5H8.05664C6.85221 41.5039 6.25 45.6706 6.25 50ZM10.4004 68.75C11.6699 71.3867 13.1673 73.8607 14.8926 76.1719C16.6178 78.4831 18.571 80.6152 20.752 82.5684C22.9329 84.5215 25.2767 86.2142 27.7832 87.6465C30.2897 89.0788 32.9264 90.2995 35.6934 91.3086C34.5215 89.681 33.4798 87.9557 32.5684 86.1328C31.6569 84.3099 30.8268 82.4381 30.0781 80.5176C29.3294 78.597 28.6947 76.6439 28.1738 74.6582C27.653 72.6725 27.181 70.7031 26.7578 68.75H10.4004ZM86.0352 77.5879C88.151 78.6621 90.0716 79.9805 91.7969 81.543C93.5221 83.1055 94.987 84.8633 96.1914 86.8164C97.3958 88.7695 98.3398 90.8529 99.0234 93.0664C99.707 95.2799 100.033 97.5911 100 100H93.75C93.75 97.4284 93.2617 95.0033 92.2852 92.7246C91.3086 90.446 89.974 88.4603 88.2812 86.7676C86.5885 85.0749 84.5866 83.724 82.2754 82.7148C79.9642 81.7057 77.5391 81.2174 75 81.25C72.3958 81.25 69.9707 81.7383 67.7246 82.7148C65.4785 83.6914 63.4928 85.026 61.7676 86.7188C60.0423 88.4115 58.6914 90.4134 57.7148 92.7246C56.7383 95.0358 56.25 97.4609 56.25 100H50C50 97.6237 50.3255 95.3288 50.9766 93.1152C51.6276 90.9017 52.5553 88.8021 53.7598 86.8164C54.9642 84.8307 56.429 83.0729 58.1543 81.543C59.8796 80.013 61.8001 78.6947 63.916 77.5879C61.4746 75.8301 59.5866 73.6328 58.252 70.9961C56.9173 68.3594 56.25 65.5273 56.25 62.5C56.25 59.9284 56.7383 57.5033 57.7148 55.2246C58.6914 52.946 60.026 50.9603 61.7188 49.2676C63.4115 47.5749 65.3971 46.224 67.6758 45.2148C69.9544 44.2057 72.3958 43.7174 75 43.75C77.5716 43.75 79.9967 44.2383 82.2754 45.2148C84.554 46.1914 86.5397 47.526 88.2324 49.2188C89.9251 50.9115 91.276 52.9134 92.2852 55.2246C93.2943 57.5358 93.7826 59.9609 93.75 62.5C93.75 65.4948 93.0827 68.3105 91.748 70.9473C90.4134 73.584 88.5091 75.7975 86.0352 77.5879ZM75 75C76.7253 75 78.3366 74.6745 79.834 74.0234C81.3314 73.3724 82.666 72.4772 83.8379 71.3379C85.0098 70.1986 85.9049 68.8802 86.5234 67.3828C87.1419 65.8854 87.4674 64.2578 87.5 62.5C87.5 60.7747 87.1745 59.1634 86.5234 57.666C85.8724 56.1686 84.9772 54.834 83.8379 53.6621C82.6986 52.4902 81.3802 51.5951 79.8828 50.9766C78.3854 50.3581 76.7578 50.0326 75 50C73.2747 50 71.6634 50.3255 70.166 50.9766C68.6686 51.6276 67.334 52.5228 66.1621 53.6621C64.9902 54.8014 64.0951 56.1198 63.4766 57.6172C62.8581 59.1146 62.5326 60.7422 62.5 62.5C62.5 64.2253 62.8255 65.8366 63.4766 67.334C64.1276 68.8314 65.0228 70.166 66.1621 71.3379C67.3014 72.5098 68.6198 73.4049 70.1172 74.0234C71.6146 74.6419 73.2422 74.9674 75 75Z" fill="#003DC9"/>
</g>
<defs>
<clipPath id="clip0_90_57">
<rect width="100" height="100" fill="white"/>
</clipPath>
</defs>
</svg>
