<svg width="100" height="100" viewBox="0 0 100 100" fill="none" xmlns="http://www.w3.org/2000/svg">
<g clip-path="url(#clip0_123_226)">
<path fill-rule="evenodd" clip-rule="evenodd" d="M85.4277 14.5322C76.0279 5.166 63.5271 0.00526441 50.2088 0C22.7667 0 0.432221 22.2277 0.421239 49.5492C0.417579 58.2825 2.71026 66.8076 7.0669 74.322L0.00378418 100L26.3969 93.1094C33.6686 97.0569 41.8561 99.1373 50.1888 99.1408H50.2093C77.6485 99.1408 99.985 76.9103 99.9961 49.5887C100.001 36.3483 94.8277 23.8984 85.4277 14.5322ZM50.2093 90.7716H50.1924C42.7671 90.7688 35.4841 88.7834 29.1307 85.0309L27.6195 84.1382L11.9577 88.2273L16.1382 73.0291L15.1542 71.471C11.0119 64.9134 8.82403 57.3341 8.82729 49.5523C8.83637 26.8438 27.4 8.36906 50.2257 8.36906C61.2784 8.37324 71.6684 12.6629 79.4813 20.4478C87.2942 28.2326 91.5944 38.5806 91.5902 49.5855C91.5807 72.2956 73.0173 90.7716 50.2093 90.7716ZM72.9077 59.9257C71.6636 59.306 65.5475 56.3105 64.4071 55.8974C63.2669 55.4842 62.4377 55.2776 61.6082 56.5172C60.779 57.7566 58.3949 60.5456 57.669 61.3718C56.9435 62.1982 56.2179 62.3016 54.9738 61.6817C53.7298 61.062 49.7215 59.7547 44.9698 55.5364C41.2718 52.2536 38.7749 48.1986 38.0493 46.9592C37.3236 45.7196 37.9721 45.0494 38.5949 44.4323C39.1544 43.8775 39.8388 42.9862 40.4609 42.2631C41.0828 41.5401 41.2901 41.0236 41.7047 40.1974C42.1194 39.371 41.9121 38.6479 41.6011 38.0282C41.2901 37.4085 38.8023 31.3142 37.7655 28.8352C36.7558 26.4209 35.7302 26.7475 34.9666 26.7097C34.2417 26.6738 33.4116 26.6661 32.5824 26.6661C31.753 26.6661 30.4053 26.976 29.265 28.2155C28.1247 29.455 24.9112 32.4505 24.9112 38.5447C24.9112 44.6388 29.3687 50.5263 29.9907 51.3527C30.6126 52.1791 38.7627 64.6853 51.2419 70.0484C54.2099 71.324 56.5271 72.0857 58.3337 72.6567C61.314 73.5987 64.0259 73.4658 66.1694 73.1471C68.5594 72.7916 73.5294 70.1518 74.5662 67.2596C75.6029 64.3674 75.6029 61.8884 75.2919 61.3719C74.981 60.8555 74.1516 60.5456 72.9077 59.9257Z" fill="#003DC9"/>
</g>
<defs>
<clipPath id="clip0_123_226">
<rect width="100" height="100" fill="white"/>
</clipPath>
</defs>
</svg>
